<svg width="13" height="15" viewBox="0 0 13 15" fill="none" xmlns="http://www.w3.org/2000/svg">
<path d="M12.5043 1.80566C12.8795 1.3541 12.8197 0.683398 12.3682 0.308203C11.9166 -0.0669923 11.2459 -0.0072267 10.8707 0.444336L6.375 5.83984L1.87929 0.444336C1.5041 -0.0072267 0.833395 -0.0669923 0.381833 0.308203C-0.0697295 0.683398 -0.129495 1.3541 0.2457 1.80566L4.99043 7.5L0.2457 13.1943C-0.129495 13.6459 -0.0697295 14.3166 0.381833 14.6918C0.833395 15.067 1.5041 15.0072 1.87929 14.5557L6.375 9.16016L10.8707 14.5557C11.2459 15.0072 11.9166 15.067 12.3682 14.6918C12.8197 14.3166 12.8795 13.6459 12.5043 13.1943L7.75957 7.5L12.5043 1.80566Z" fill="#72747C"/>
</svg>
